<svg xmlns="http://www.w3.org/2000/svg" xmlns:xlink="http://www.w3.org/1999/xlink" xmlns:inkscape="http://www.inkscape.org/namespaces/inkscape" fill="currentColor" version="1.1"  viewBox="0 0 283.465 283.465">
<defs>
<clipPath id="clip_1">
<path transform="matrix(1,0,0,-1,0,283.465)" d="M0 283.465H283.465V0H0Z"/>
</clipPath>
</defs>
<g inkscape:groupmode="layer" inkscape:label="Livello 1">
<g clip-path="url(#clip_1)">
<path transform="matrix(1,0,0,-1,86.9701,172.3341)" d="M0 0 6.957 1.349C9.552 1.851 12.094 1.773 14.729 1.027L18.564-.058C25.478-2.014 28.661 .761 35.824 .629 36.428 .618 36.757 .997 36.72 1.522 36.69 1.95 36.35 2.199 35.82 2.211 28.776 2.369 25.106-.422 18.693 1.555 14.399 2.878 10.984 3.75 6.499 2.873L.239 1.65C-6.59 .315-8.862 3.11-15.056 2.583-15.598 2.537-15.925 2.183-15.892 1.759-15.858 1.305-15.488 .954-14.933 1.01-9.4 1.568-6.415-1.243 0 0"/>
<path transform="matrix(1,0,0,-1,116.6892,177.0484)" d="M0 0C.027 1.752-5.875-.035-7.345-.392-12.917-1.748-14.481 .973-18.642 1.537-23.437 2.187-26.284-1.291-32.167 .366-32.672 .508-32.952-.257-32.851-.599-32.762-.9-32.535-1.153-32.077-1.269-24.77-3.125-22.158 2.234-15.433-1.065-9.479-3.986-6.362-1.1-.98-.793-.388-.76-.008-.549 0 0"/>
<path transform="matrix(1,0,0,-1,110.0777,186.4863)" d="M0 0C.539 .18 .699 .598 .573 1.07 .5 1.341 .09 1.716-.362 1.565-4.962 .019-6.44 3.695-12.123 1.485-17.061-.436-19.031 2.915-19.479 1.079-19.574 .69-19.427 .319-18.979 .115-16.574-.984-13.962-.926-11.503 .023-6.477 1.962-4.969-1.663 0 0"/>
<path transform="matrix(1,0,0,-1,138.4051,201.91791)" d="M0 0 7.637 1.778C9.699 2.258 11.671 2.347 13.636 2.003L20.012 .887C25.709-.111 28.507 1.928 34.599 1.583 34.997 1.561 35.266 2.138 35.247 2.398 35.223 2.722 34.97 3.114 34.509 3.144 28.034 3.563 25.938 1.323 19.385 2.544L13.601 3.621C11.426 4.026 9.265 3.776 7.11 3.277L-.156 1.594C-7.352-.072-9.201 3.925-17.664 2.268-19.453 1.918-21.15 1.545-22.95 1.333-23.526 1.265-23.865 .939-23.789 .339-23.744-.017-23.334-.392-22.788-.291L-16.466 .877C-9.728 2.121-7.065-1.645 0 0"/>
<path transform="matrix(1,0,0,-1,181.6576,204.8153)" d="M0 0C-9.729 1.637-11.779-2.947-20.331-.598L-24.246 .477C-26.83 1.187-29.431 1.239-32.054 .67L-38.906-.817C-41.613-1.405-44.275-1.526-46.998-.987-47.534-.881-47.871-1.36-47.847-1.758-47.827-2.08-47.617-2.416-47.175-2.51-44.382-3.099-41.607-2.99-38.806-2.39L-31.954-.921C-25.388 .487-22.047-2.617-16.015-2.851-10.728-3.056-8.408-.472-.821-1.497 1.415-1.799 3.568-2.141 5.82-2.122 6.321-2.118 6.659-1.787 6.675-1.357 6.685-1.076 6.453-.562 5.971-.554 3.961-.52 2.019-.34 0 0"/>
<path transform="matrix(1,0,0,-1,169.6638,194.2735)" d="M0 0C-1.889-.662-3.946-.465-5.813 .165-13.546 2.777-15.337-2.309-23.953 .299-26.809 1.164-29.719 1.425-32.72 .788L-37.675-.265C-40.777 1.15-43.152 3.366-44.96 6.527-35.819 3.242-25.398 2.494-15.459 2.737-6.812 2.948 2.375 3.759 10.703 6.925 4.887-1.432 3.582 1.255 0 0M-46.981 10.239C-36.98 6.344-24.731 5.442-14.009 5.647-5.078 5.818 4.343 6.854 12.594 10.564 12.465 9.801 12.11 9.016 11.62 8.544 .728 3.424-18.542 3.118-30.29 4.346-35.628 4.904-40.696 5.951-45.695 8.036-46.502 8.372-46.602 9.557-46.981 10.239M-31.89 21.766C-30.829 21.339-29.916 20.71-29.155 19.543L-35.413 19.512C-34.679 20.776-33.44 21.748-31.89 21.766M-33.505 8.964C-33.736 8.618-34.146 8.429-34.545 8.692L-34.532 18.062-28.167 17.986C-27.699 17.98-27.342 17.47-26.944 17.266L-26.968 11.172C-29.686 11.941-32.059 11.136-33.505 8.964M-26.774 9.742-28.648 7.954C-29.823 7.684-31.055 8.134-32.516 8.282-31.46 10.248-28.793 10.984-26.774 9.742M-17.665 21.814C-16.547 21.137-15.671 20.277-15.041 18.984L-26.659 18.837C-27.456 19.88-28.255 20.716-29.263 21.789ZM-6.995 21.842C-5.852 21.162-4.815 20.487-4.004 19.125L-13.629 19.005C-14.202 20.18-14.928 20.951-15.717 21.848ZM-2.091 10.881C-3.393 11.352-4.867 10.866-6.379 11.103L-6.392 17.632 .863 17.725 .906 8.834C.526 8.473-.148 8.393-.82 8.479-1.266 9.202-1.204 10.561-2.091 10.881M-7.766 9.97-2.629 9.904C-2.226 9.669-2.079 8.888-1.964 8.223-3.444 7.908-4.8 7.797-6.308 7.708-6.661 8.645-7.119 9.271-7.766 9.97M-15.485 9.608C-13.216 9.357-12.127 8.313-9.816 9.392-8.786 9.353-7.86 8.81-7.547 7.613L-16.333 7.252C-16.513 7.821-16.992 8.416-16.957 8.965-16.921 9.513-15.955 9.66-15.485 9.608M-10.634 10.268C-11.943 9.832-13.093 10.17-14.239 10.603-13.677 11.356-12.99 11.577-12.255 11.474-11.642 11.388-10.96 10.936-10.634 10.268M-17.757 7.282-25.403 7.559C-25.677 7.831-25.638 8.545-25.455 8.885L-21.97 10.228C-20.54 9.698-17.757 9.106-17.757 7.282M-17.911 9.952C-22.961 11.731-20.513 11.752-25.511 10.172L-25.516 17.457-7.847 17.618-7.775 11.221C-8.347 10.997-8.923 10.833-9.571 10.676-10.204 11.84-11.275 12.604-12.496 12.64-13.702 12.677-14.856 12.067-15.452 10.717-16.454 10.978-17.265 10.13-17.911 9.952M1.721 19.201C.219 19.294-1.254 18.875-2.54 19.285L-4.756 21.742C-1.791 22.166 .207 21.919 1.721 19.201M27.203-.651C27.311-.198 27.18 .331 26.68 .426 13.748 2.886 15.795-2.35 6.9 .259 10.971 3.537 13.325 7.712 15.396 12.249 15.508 12.624 15.431 12.97 15.202 13.144 15.031 13.274 14.615 13.438 14.322 13.28 10.54 11.236 6.547 9.826 2.307 8.968L2.341 17.723C3.037 17.787 3.499 17.59 3.889 18.343 3.029 20.287 1.178 23.199-1.429 23.195L-32.895 23.149C-34.688 23.146-38.06 19.592-37.332 18.42-37.098 18.043-36.501 18.149-35.999 18.052L-35.934 8.827C-40.161 9.619-44.409 10.674-48.254 12.619-48.563 12.776-48.94 12.774-49.153 12.619-49.339 12.483-49.544 12.03-49.413 11.696-47.63 7.159-44.695 2.148-40.616-.513-42.455-.43-44.165-.117-45.911 .391-49.289 1.375-52.638 1.132-55.949-.08-56.339-.222-56.747-.339-56.836-.724-56.925-1.111-56.735-1.526-56.396-1.669-55.241-2.158-52.307 .673-45.902-1.24-40.896-2.736-37.97-2.076-33.019-.883-25.065 1.034-22.698-3.945-14.131-1.284-7.057 .913-5.833-3.418 .681-1.525 6.922 .29 8.587-3.675 15.11-1.407 21.883 .948 26.841-2.165 27.203-.651"/>
<path transform="matrix(1,0,0,-1,59.5598,149.9617)" d="M0 0 2.922 1.873 2.894-12.278C-1.404-6.036 .433-7.436 0 0M-1.644-4.542C-7.521 7.031-11.052 19.381-11.954 32.331L1.232 40.386C2.901 41.405 4.304 42.516 5.673 43.88 8.054 46.285 10.131 44.525 12.986 47.197L18.242 52.115C20.007 53.767 22.163 54.795 24.396 55.696 28.101 57.19 28.178 59.003 29.43 59.036 29.842 59.047 30.221 58.809 30.538 58.457L34.671 53.871C36.934 51.359 38.917 52.608 40.773 51.19L44.994 47.965C48.896 44.984 51.744 47.742 53.758 46.114 54.802 44.568 56.165 43.493 57.841 42.67L69.254 37.063C69.08 32.283 69.277 27.64 68.786 22.93 68.685 21.954 67.358 20.98 68.103 19.44L59.982 23.223C59.331 23.527 58.804 23.638 58.161 23.213L53.726 20.276C53.064 20.769 52.417 21.129 51.583 21.077 49.465 20.945 47.302 21.555 45.242 21.126 43.925 20.852 43.14 19.236 41.887 18.693 41.179 19.319 39.612 19.318 38.851 19.801 37.357 20.748 36.345 21.852 34.407 22.01 33.254 22.104 32.904 24.787 30.369 24.439 27.565 24.053 29.115 22.162 25.58 20.268 25.081 20.281 24.498 20.788 23.913 20.694L15.495 19.333C15.417 20.146 15.086 20.628 14.369 20.666 13.36 20.72 11.298 20.948 11.251 19.785L11.134 16.969 1.831 11.354C1.414 11.102 1.243 10.724 1.277 10.355 1.39 9.137 2.974 9.898 2.969 9.221L2.928 3.826-.987 1.248C-2.218 .438-1.172-2.916-1.644-4.542M2.446 89.884C22.383 121.982 58.902 139.759 96.518 135.038 133.402 130.409 164.141 104.767 176.129 69.711 180.341 57.396 181.88 44.355 180.882 31.36 177.036 32.583 173.731 34.258 170.613 36.502 168.525 38.007 166.431 39.24 164.215 40.517 162.018 41.676 160.195 43.183 158.465 44.938 155.472 47.974 153.5 45.481 150.252 48.8 145.545 53.61 144.154 55.182 137.924 57.827 133.929 59.522 134.063 61.613 131.772 61.696 130.936 61.726 130.133 61.311 129.499 60.654L124.708 55.684C121.969 52.842 121.222 55.188 118.068 52.727 116.423 51.443 114.771 50.208 113.012 49.097 109.062 46.603 107.444 50.26 104.185 47.085 103.169 45.812 101.971 44.857 100.544 44.032 97.284 42.149 93.967 40.577 90.528 39.011L89.846 73.192C90.276 73.566 90.46 73.904 90.598 74.284 90.774 74.766 90.042 74.972 89.918 75.406 89.599 76.527 89.871 77.725 89.764 78.885 89.617 80.48 91 80.622 90.722 81.867 90.543 82.671 89.314 82.49 89.317 83.626L89.339 92.376C89.341 93.158 89.954 93.804 89.697 94.729 89.555 95.242 89.575 95.93 89.828 96.446 91.373 99.591 89.132 99.251 89.5 101.186 89.573 101.565 89.518 102.338 89.254 102.662 88.38 103.734 87.312 102.738 86.677 104.865L81.008 123.84 81.406 125.167C81.612 125.853 79.928 125.61 80.453 129.027 80.826 129.385 81.864 128.843 82.224 129.49 82.297 129.621 82.304 129.8 82.152 129.959 81.773 130.352 80.916 130.074 80.608 130.255 80.162 130.516 80.61 131.486 80.281 132.006 80.132 132.242 79.821 132.266 79.597 132.103 79.165 131.789 79.464 130.911 79.335 130.278 79.002 130.063 77.518 130.432 77.494 129.744 77.464 128.847 78.868 129.312 79.339 129.049 79.783 124.391 77.506 126.696 78.817 123.908L72.813 103.841C72.086 103.002 70.104 103.237 70.452 101.366 70.633 100.39 70.187 99.92 69.721 99.295 68.987 98.312 69.674 97.058 69.979 96.102 70.254 95.236 69.925 94.331 70.051 93.445 70.116 92.988 70.451 92.613 70.449 92.172L70.415 83.462C70.411 82.433 69.263 82.632 69.055 81.851 68.776 80.803 69.96 80.327 69.935 79.521 69.892 78.124 70.06 76.76 69.861 75.369 69.806 74.986 69.218 74.789 69.248 74.402 69.282 73.959 69.454 73.614 69.893 73.193L69.261 38.843 59.981 43.339C58.023 44.288 56.287 45.385 54.93 47.071 51.562 49.966 50.488 46.563 46.435 48.999 44.864 49.943 43.468 51.098 42.038 52.26 39.325 54.463 38.372 52.774 36.25 54.605 34.366 56.23 33.346 58.105 31.301 59.864 30.08 60.915 28.417 60.911 27.318 59.669 24.238 56.19 21.629 57.578 16.098 52.351L11.841 48.329C9.474 46.092 7.407 47.84 4.546 45.01 3.002 43.475 1.324 42.301-.551 41.157L-12.08 34.122C-13.068 54.115-7.943 73.159 2.446 89.884M171.621-2.634C171.279-2.451 171.279-1.955 170.912-1.884L168.482-1.419C168.085-1.344 168.15-.839 168.202-.488 168.239-.24 168.597-.148 168.871 .092 169.367 .526 168.967 1.159 168.498 1.508L157.67 9.545 152.906 9.578C152.621 10.039 153.068 11.821 152.331 11.968 151.435 12.146 150.193 12.292 149.361 11.905 148.824 11.388 149.193 10.347 149.053 9.635L146.322 9.504 135.622 2.161C135.322 1.955 135.402 1.486 135.473 1.258 135.695 .551 136.825 1.168 136.851 .366 136.88-.563 134.628-.031 133.378-.095L133.387 12.547C134.181 12.334 134.934 11.819 135.303 12.545 135.49 12.912 135.452 13.388 135.04 13.628L126.147 18.804 126.103 22.532C126.098 22.929 125.812 23.436 125.36 23.458 124.288 23.509 123.13 23.654 122.083 23.374 121.345 23.176 121.512 22.177 121.476 21.514L118.274 23.073C116.947 23.719 115.283 22.869 113.796 23.149 113.673 23.726 114.006 24.789 113.416 25.071 112.549 25.486 111.073 25.476 110.245 25.028 109.66 24.56 110.079 23.489 109.912 22.865 109.186 22.655 108.365 22.886 107.668 22.563L99.796 18.921C98.742 18.434 97.144 19.596 96.14 18.926L91.022 15.51C90.919 16.094 90.739 17.109 90.936 17.715 92.456 18.606 92.288 22.191 90.92 22.982L90.562 37.177C94.286 39.026 97.941 40.637 101.456 42.729 102.914 43.597 104.209 44.483 105.213 45.851 107.179 48.291 110.005 44.907 114.203 47.924L119.638 51.831C121.454 53.136 123.092 51.793 125.409 54.164L130.645 59.521C132.519 61.438 132.636 58.272 137.37 56.313 143.391 53.822 144.589 52.135 149.11 47.662 152.829 43.983 154.958 46.383 157.559 43.618 158.942 42.148 160.445 40.936 162.164 39.859 165.601 37.987 168.725 35.901 171.985 33.722 174.681 31.92 177.629 30.819 180.733 29.73 179.62 18.438 176.503 7.556 171.621-2.634M168.232-8.955 168.175-2.757C168.867-2.722 169.369-2.804 170.063-2.988 170.743-5.907 169.714-6.132 168.232-8.955M165.427-13.547 149.242-13.517 149.279 1.267 157.402 7.743 166.582 .927 166.585-11.737ZM150.619 10.615 151.331 10.62 151.34 9.559 150.627 9.554ZM138.913 2.457 146.842 7.961 154.928 7.893 148.136 2.404ZM143.673-13.505 143.713-7.477C147.19-5.635 146.929-1.109 145.768-2.269 145.238-2.797 145.704-5.192 143.683-6.125L143.617-1.401C143.612-1.084 143.342-.939 143.206-.914 142.959-.868 142.635-1.054 142.63-1.407L142.553-6.11C140.629-4.894 140.704-2.378 139.902-2.418 139.698-2.428 139.385-2.648 139.46-2.993 140.206-6.437 142.618-6.817 142.606-8.386L142.564-13.524 138.413-13.522 138.388 .736 147.617 .761 147.625-13.49C146.299-13.594 145.089-13.565 143.673-13.505M133.372-13.486 133.385-1.727 136.827-1.73 136.859-13.445C135.668-13.648 134.569-13.561 133.372-13.486M124.602 19.801C124.003 19.872 123.582 20.145 123.337 20.376 122.998 20.696 122.989 21.477 123.224 21.838 123.367 22.058 124.215 22.12 124.435 21.822 124.827 21.29 124.519 20.542 124.602 19.801M120.807-13.544 120.759-6.117C120.737-4.586 119.736-3.544 118.446-3.504 117.034-3.461 115.846-4.465 115.807-5.972L115.784-13.522 104.97-13.526 104.954 12.63 117.851 21.406 124.472 17.61 131.778 13.642 131.78-13.525ZM116.849-13.477 116.867-5.981C116.869-5.143 117.545-4.597 118.279-4.555 118.892-4.52 119.708-5.059 119.716-5.852L119.792-13.434C118.792-13.637 117.905-13.575 116.849-13.477M111.44 23.351C111.44 23.598 111.64 23.798 111.887 23.798 112.134 23.798 112.334 23.598 112.334 23.351 112.334 23.105 112.134 22.905 111.887 22.905 111.64 22.905 111.44 23.105 111.44 23.351M99.812 17.056C107.069 20.161 106.312 21.492 114.79 21.424L104.177 13.999ZM103.363-13.553H90.131999V-6.6850006H103.363ZM98.488-5.536C97.899-5.711 97.353-5.711 96.692-5.567 96.626-4.512 96.303-2.525 97.638-2.659 98.803-2.776 98.415-4.406 98.488-5.536M91.394 .178C91.122 .643 90.577 .786 90.125 1.179L90.117 12.719 96.527 17.341 103.347 12.55 103.344-5.653 99.612-5.611C99.461-4.808 99.609-4.126 99.514-3.396 99.369-2.28 98.44-1.546 97.454-1.601 96.359-1.661 95.602-2.526 95.603-3.684 95.603-4.327 95.656-4.895 95.558-5.648L90.153-5.621C90.087-4.186 90.053-2.473 90.17-1.064 90.422-.859 90.98-.885 91.197-.734 91.427-.573 91.604-.181 91.394 .178M87.212 12.881C86.753 12.568 86.506 12.083 86.723 11.727 87.077 11.15 87.559 11.142 88.485 11.513L88.454 2.223 81.094 6.634 70.577 6.668 70.775 18.085C76.941 19.056 83.087 19.123 89.243 18.152L89.338 14.332ZM88.505-13.536 76.083-13.527 76.058-6.698C75.989-4.506 74.274-2.95 72.298-2.951 70.281-2.952 68.608-4.552 68.523-6.638L68.477-13.536 56.578-13.533 56.612-.978 88.509-.934ZM69.518-13.509 69.55-6.62C69.556-5.151 70.797-4.07 72.134-3.981 73.466-3.893 74.978-4.939 74.996-6.442L75.078-13.474ZM69.044 6.819C68.737 6.51 67.66 6.505 67.591 6.894 67.086 9.711 67.725 12.726 66.358 12.708L60.667 12.635 54.768 18.967 59.087 21.871 63.711 19.687C65.57 18.809 67.363 18.056 69.198 16.992ZM60.005 3.355 60.25 10.67C60.267 11.197 60.608 11.545 61.135 11.546L66.061 11.552 66.415 6.515ZM56.618 1.797 56.617 11.412C57.383 11.494 58.056 11.484 58.782 11.26L58.627 2.828C58.017 2.357 57.356 2.108 56.618 1.797M80.701 5.075 87.833 .672 58.349 .664 67.197 5.085ZM90.136 21.319C90.445 20.945 90.368 20.131 90.244 19.483 83.799 20.774 76.194 20.652 69.73 19.444 69.582 20.132 69.566 20.726 69.801 21.357 75.289 22.668 84.749 22.892 90.136 21.319M71.48 74.16C71.517 74.558 72.324 74.73 72.588 74.814L72.626 68.499 71.786 23.344C71.398 23.311 71.031 23.112 70.522 23.202ZM71.75 101.667C71.786 101.926 71.915 102.271 72.408 102.159 72.182 101.92 72.235 101.669 72.095 101.193 71.806 100.971 71.711 101.377 71.75 101.667M71.821 98.883C71.877 97.976 73.218 94.929 71.608 94.932 71.993 97.25 69.873 98.135 71.821 98.883M72.749 93.488 72.793 84.702C72.795 84.298 72.344 83.95 72.035 84.161L72.073 92.597C72.075 93.073 72.297 93.434 72.749 93.488M77.995 101.009 78.151 97.05 73.551 95.876C73.129 97.057 73.036 98.206 72.738 99.584ZM78.148 104.001C78.217 103.667 78.297 102.972 78.048 102.757 76.773 102.258 75.483 102.063 74.006 101.663 73.572 103.594 76.422 103.328 78.148 104.001M78.338 105.243C77.106 104.717 75.944 104.563 74.584 104.266L79.012 118.891ZM79.367 83.848 84.994 83.241 84.988 77.502C82.931 77.658 80.985 77.717 79.085 78.06 79.04 79.651 78.986 81.251 79.094 82.84 79.119 83.208 79.326 83.535 79.367 83.848M82.803 85.35C82.313 85.04 81.744 85.249 81.052 85.386L81.062 91.791C81.063 92.339 81.638 92.466 82.037 92.4 82.37 92.346 82.751 92.047 82.755 91.549ZM82.222 93.433C81.287 93.594 80.07 93.055 80.061 91.989L80.008 85.773C80.006 85.542 79.887 85.447 79.767 85.446 79.654 85.445 79.384 85.533 79.384 85.757L79.399 95.403 84.514 94.939 84.504 85.533C84.504 85.3 84.484 85.068 84.333 85.03 84.159 84.987 83.821 85.05 83.819 85.369L83.777 91.474C83.77 92.573 83.035 93.293 82.222 93.433M85.517 100.322 84.982 96.547 79.16 97.058 79.093 101.051ZM87.706 93.154 87.768 84.078C87.559 83.928 87.12 84.207 87.117 84.619L87.061 91.299C87.059 91.619 86.807 91.806 86.631 91.829 85.241 92.018 86.66 85.681 85.738 84.683L85.524 94.503C86.394 94.183 86.991 93.721 87.706 93.154M88.292 80.2 88.186 76.32C87.384 76.646 86.763 77.03 86.043 77.441L86.086 83.003C87.119 82.539 87.96 81.969 88.841 81.386ZM76.921 85.402C76.915 84.998 76.028 84.994 75.703 84.983L75.664 91.578C75.662 91.901 76.01 92.108 76.165 92.232 76.325 92.36 76.855 92.297 76.875 91.929 76.987 89.79 76.958 87.729 76.921 85.402M78.211 88.459C78.42 87.456 78.741 86.267 78.095 85.249 77.544 87.26 79.011 93.008 76.625 93.281 75.753 93.38 74.653 92.812 74.648 91.766L74.612 85.126C74.61 84.869 74.559 84.707 74.446 84.64 74.296 84.552 73.792 84.385 73.791 84.709L73.772 94.302C75.303 94.736 76.673 95.095 78.312 95.382L78.366 89.958C78.371 89.458 78.094 89.019 78.211 88.459M73.571 82.763 77.718 83.736C77.911 83.781 78.069 83.68 78.193 83.667V78.054C77.865 77.957 77.521 77.714 77.172 77.686 76.411 78.307 74.387 77.818 73.848 77.027 73.345 78.849 73.825 80.805 73.571 82.763M71.384 80.434C71.283 80.854 70.734 81.222 71.143 81.576 71.667 81.612 71.922 82.142 72.586 82.265L72.595 76.68C72.252 76.588 71.934 76.265 71.529 76.331 71.381 77.769 71.701 79.109 71.384 80.434M77.989 24.106C77.744 23.746 73.712 23.742 72.843 23.572L73.482 65.576C73.673 65.615 73.653 65.939 73.652 66.189L73.631 73.674C73.63 74.216 73.65 74.784 73.791 75.352L78.113 76.228 78.157 66.824C78.046 66.859 78.004 66.756 78.004 66.56L78.001 25.222 78.023 24.598C78.029 24.435 78.077 24.236 77.989 24.106M85.659 23.742 79.02 23.934 79.048 32.086 79.158 76.309C79.571 76.322 79.846 76.358 80.084 76.332L84.9 75.816C84.943 75.082 84.677 74.381 85.021 73.896L85.712 25.446C85.72 24.931 85.736 24.432 85.659 23.742M86.59 29.382 86.225 58.576 85.949 75.534C86.798 75.336 87.554 74.857 88.312 74.231L89.335 23.263C88.433 23.277 87.545 23.499 86.685 23.725 86.654 25.724 86.95 27.586 86.59 29.382M87.512 102.228C87.819 102.199 88.019 102.107 88.086 101.93 88.181 101.678 88.322 101.257 88.036 101.007 87.646 101.339 87.464 101.773 87.512 102.228M88.461 98.657C89.202 98.147 87.796 96.629 88.103 94.888 87.345 95.265 86.741 95.734 85.992 96.231L86.567 99.906C87.283 99.562 87.805 99.108 88.461 98.657M79.372 105.204 80.32 120.226 85.185 104.496ZM79.466 104.122 85.168 103.293C85.711 103.214 85.898 102.478 85.798 101.974L79.348 102.661C79.245 103.196 79.222 103.655 79.466 104.122M47.807 19.522 52.215 19.395 57.978 13.099C57.08 12.817 56.33 13.153 55.64 13.668ZM53.857-.465C53.958-.827 54.362-1.021 54.996-1.034L55.006-13.497 44.817-13.548 44.715-1.083 37.838 1.85 37.858 10.282C38.556 9.966 39.091 9.839 39.4 10.238 39.689 10.611 39.529 11.18 39.087 11.476L37.389 12.677 45.341 19.354 54.987 12.135 55.017 1.498C55.148 .372 53.546 .655 53.857-.465M37.953 .398 41.23-.911C40.076-1.196 39.143-.976 38.011-1.062 37.71-.607 37.758-.074 37.953 .398M37.804-13.552 37.786-2.157 43.678-2.148 43.696-13.542ZM26.806 19.372C30.095 21.208 28.872 22.698 30.48 22.972 31.231 23.1 31.67 22.788 32.114 22.188 33.81 19.897 35.287 21.397 37.253 19.174 38.546 17.712 39.485 18.541 40.75 17.63L35.853 13.574ZM26.06-13.545 25.987-7.727C25.969-6.338 24.945-5.433 23.79-5.43 22.578-5.426 21.601-6.327 21.568-7.635L21.561-13.529 11.519-13.521 11.503 10.672 24.297 18.944 36.229 11.39 36.238-13.521ZM22.641-13.463 22.65-7.638C22.651-6.93 23.236-6.53 23.812-6.526 24.382-6.522 24.901-7.004 24.906-7.679L24.952-13.427C24.171-13.64 23.464-13.599 22.641-13.463M12.767 19.1C13.155 19.23 13.463 19.247 13.883 19.148 13.91 18.333 14.028 17.542 13.846 16.611 13.762 16.176 13.11 16.089 12.822 15.992 12.673 17.036 12.751 18.024 12.767 19.1M5.378 11.562 11.111 15.123C11.697 13.037 14.61 15.168 15.152 15.696 15.646 16.177 15.406 16.965 15.505 17.642 17.206 18.04 18.851 18.302 20.605 18.518L10.382 11.902ZM7.652-13.459 7.622-6.502C7.62-6.078 7.495-5.908 7.357-5.83 7.118-5.695 6.643-5.844 6.642-6.223L6.624-13.451C5.939-13.615 5.289-13.645 4.538-13.428L4.519 9.664 9.915 10.166 9.952-13.443C9.176-13.628 8.482-13.602 7.652-13.459M-3.972-14.795C-3.907-15.296-3.611-15.674-2.671-15.674L173.177-15.656C173.994-15.656 174.332-15.192 174.341-14.603 174.368-12.751 170.101-13.977 168.05-13.518 189.904 20.959 188.062 65.125 163.736 97.843 141.028 128.384 103.48 143.195 65.921 136.09 26.464 128.626-4.868 97.059-12.483 57.679-17.239 33.088-12.46 7.636 1.008-13.537-.545-13.954-4.231-12.78-3.972-14.795"/>
<path transform="matrix(1,0,0,-1,143.201,70.063999)" d="M0 0C.334 .109 .247 .554 .125 .705-.097 .978-.851 .861-.965 1.07-1.141 1.393-.933 2.118-1.237 2.442-1.373 2.586-1.89 2.667-1.956 2.35-2.073 1.788-2.235 .812-1.871 .279-1.521-.235-.475-.155 0 0"/>
<path transform="matrix(1,0,0,-1,135.381,96.10269)" d="M0 0C-.366-.022-.871-.262-.914-.793-1.01-1.958-1.048-3.117-.958-4.305-.918-4.823-.34-4.883-.02-4.87 .303-4.856 .796-4.753 .803-4.207L.846-1.009C.854-.419 .541 .032 0 0"/>
<path transform="matrix(1,0,0,-1,135.3887,83.1841)" d="M0 0C-.294-.029-.804-.248-.815-.713-.844-1.849-1.085-3.08-.759-4.196-.6-4.742 .538-4.584 .871-4.246 .776-2.558 1.516 .151 0 0"/>
<path transform="matrix(1,0,0,-1,142.8302,87.49269)" d="M0 0C-.077 1.544 .47 4.193-.812 4.384-1.111 4.428-1.856 4.409-1.905 3.912-2.022 2.716-2.136 1.412-1.844 .198-1.695-.425-.467-.341 0 0"/>
<path transform="matrix(1,0,0,-1,141.7173,100.10559)" d="M0 0-.025 3.192 .607 3.197 .632 .005ZM.314 4.239C-.169 4.245-.885 4.013-.963 3.361-1.106 2.183-1.079 .944-.919-.251-.835-.87-.105-1.001 .355-1.027 2.05-1.124 1.667 .902 1.566 3.159 1.533 3.883 .87 4.232 .314 4.239"/>
<path transform="matrix(1,0,0,-1,146.6456,101.09779)" d="M0 0C.031-.269 1.561-1.934 .899 3.171 .844 3.601-.602 5.226 0 0"/>
<path transform="matrix(1,0,0,-1,146.8289,88.37349)" d="M0 0C.253-.073 .574 .101 .561 .447 .515 1.58 .791 4.463-.205 4.083-.595 3.934-.718 .207 0 0"/>
<path transform="matrix(1,0,0,-1,178.6195,135.1393)" d="M0 0C.042 .744 .21 1.432-.136 2.037-.495 2.666-1.661 2.6-1.981 1.954-2.295 1.317-2.139 .597-2.01-.029-1.334-.3-.686-.371 0 0"/>
<path transform="matrix(1,0,0,-1,0,283.465)" d="M184.836 141.836H186.199V138.288H184.836ZM187.183 137.475C187.188 139.359 187.284 140.941 187.113 142.688 186.045 142.975 184.974 142.955 183.893 142.7 183.79 140.9 183.786 139.262 183.9 137.48 184.973 137.156 186.044 137.166 187.183 137.475"/>
<path transform="matrix(1,0,0,-1,0,283.465)" d="M169.555 141.876H170.926V138.38101H169.555ZM171.866 137.604C171.916 139.443 171.984 140.98 171.834 142.711 170.769 142.984 169.658 142.99 168.622 142.7 168.524 140.916 168.527 139.336 168.622 137.59 169.704 137.332 170.756 137.238 171.866 137.604"/>
<path transform="matrix(1,0,0,-1,0,283.465)" d="M178.586 138.263H177.164V141.894H178.586ZM176.22 142.734C176.196 140.853 176.08 139.188 176.28 137.394 177.41 137.194 178.431 137.152 179.569 137.41L179.559 142.732C178.477 143.033 177.336 143.034 176.22 142.734"/>
<path transform="matrix(1,0,0,-1,184.8735,157.2596)" d="M0 0-.026 3.326 1.323 3.337 1.35 .011ZM-.957 4.231C-1.039 2.435-1.101 .849-.896-.885 .234-1.038 1.236-1.117 2.302-.814 2.351 .974 2.412 2.486 2.272 4.152 1.232 4.488 .143 4.429-.957 4.231"/>
<path transform="matrix(1,0,0,-1,169.6608,157.0639)" d="M0 0-.009 3.2 1.33 3.204 1.339 .004ZM-.959 4.073C-1.046 2.398-1.054 .889-.955-.805 .131-1.043 1.233-1.146 2.302-.755L2.189 4.031C1.148 4.266 .114 4.246-.959 4.073"/>
<path transform="matrix(1,0,0,-1,90.1015,146.789)" d="M0 0-1.359 .002-1.356 3.135 .004 3.133ZM-2.31 3.949C-2.339 2.385-2.547 .856-2.239-.641-2.136-1.14 .811-1.199 .903-.656 1.174 .947 1.006 2.451 .923 3.972-.191 4.21-1.2 4.251-2.31 3.949"/>
<path transform="matrix(1,0,0,-1,78.0095,146.6156)" d="M0 0C-.056-.273-.953-.259-1.152-.074-1.294 .743-1.287 1.828-1.179 2.753-1.145 3.045-.13 3.051 .003 2.782 .143 2.02 .189 .92 0 0M-2.177 3.775C-2.272 2.083-2.367 .546-2.132-1.059-1.028-1.218 .026-1.351 1.07-.921 1.045 .823 1.203 2.258 .971 3.796-.109 4.033-1.135 4.048-2.177 3.775"/>
<path transform="matrix(1,0,0,-1,83.0845,138.64659)" d="M0 0C-.071 .712-.086 1.301 .017 2.028 .31 2.16 .966 2.28 1.133 1.957 1.407 1.428 1.146 .806 1.27 .062 .788-.195 .431-.138 0 0M2.019 2.728C1.648 3.394-.409 3.359-.829 2.732-1.31 1.686-.925 .191-1.012-.974 .158-1.173 1.042-1.206 2.244-.964 2.076 .3 2.571 1.738 2.019 2.728"/>
<path transform="matrix(1,0,0,-1,77.7004,157.5394)" d="M0 0-1.214 .005-1.206 2.252 .009 2.247ZM-2.133 3.068C-2.28 1.748-2.267 .579-2.16-.734-1.171-1.095-.152-1.009 .956-.799 1.024 .677 1.114 1.848 .847 3.126-.183 3.275-1.169 3.359-2.133 3.068"/>
<path transform="matrix(1,0,0,-1,90.1073,157.3499)" d="M0 0-1.274 .005-1.266 2.177 .009 2.172ZM-2.201 2.994C-2.304 1.689-2.349 .506-2.169-.825-1.149-1.091-.067-1.075 .988-.784 .965 .667 1.119 1.778 .893 3.017-.188 3.24-1.18 3.274-2.201 2.994"/>
<path transform="matrix(1,0,0,-1,110.4305,146.1619)" d="M0 0C.282 1.316 .262 3.018-.055 4.234-.279 4.739-1.996 4.692-2.11 4.152-2.392 2.814-2.364 1.106-2.125-.113-1.787-.565-.133-.547 0 0"/>
<path transform="matrix(1,0,0,-1,100.834,142.3129)" d="M0 0C-.276-1.18-.44-2.833 .019-3.964 .275-4.594 1.725-4.358 2.183-4.053 2.191-2.694 2.427-1.226 2.03 .02 1.868 .53 .235 .493 0 0"/>
<path transform="matrix(1,0,0,-1,108.4398,153.8542)" d="M0 0C-.239-1.183-.351-2.798 .062-3.909 .263-4.422 2.03-4.367 2.156-3.819 2.439-2.589 2.407-1.02 2.151 .053 1.697 .427 .359 .458 0 0"/>
<path transform="matrix(1,0,0,-1,103.958,134.7647)" d="M0 0C-.223-.931-.232-1.711 .026-2.648 .422-2.857 1.698-3.15 1.959-2.624 2.3-1.937 2.295-.595 1.912-.071 1.534 .448 .461 .16 0 0"/>
<path transform="matrix(1,0,0,-1,140.9381,154.6913)" d="M0 0 1.204-.003 1.197-2.572-.006-2.569ZM2.133-3.378C2.188-1.817 2.26-.535 2.075 .885 1.05 1.145 .033 1.164-.968 .884-1.036-.592-1.071-1.927-.947-3.386 .072-3.642 1.08-3.683 2.133-3.378"/>
<path transform="matrix(1,0,0,-1,0,283.465)" d="M121.871 128.615H122.942V126.186008H121.871ZM123.898 125.452C123.925 126.97 124.005 128.082 123.854 129.433 122.916 129.717 121.872 129.757 120.973 129.414 120.866 127.978 120.812 126.725 120.982 125.355 121.974 125.148 122.952 125.037 123.898 125.452"/>
<path transform="matrix(1,0,0,-1,66.942,143.49449)" d="M0 0C-.298 .022-.529-.217-.526-.588L-.497-4.34C-.494-4.709-.271-4.917 0-4.923 .279-4.929 .488-4.709 .485-4.236L.456-.613C.453-.258 .253-.019 0 0"/>
<path transform="matrix(1,0,0,-1,122.2355,132.8386)" d="M0 0C-.748 .352-1.661 .148-2.442 .145-2.736-.465-2.715-.991-2.436-1.557-1.603-1.697-.822-1.743 .097-1.512 .316-1.073 .456-.214 0 0"/>
<path transform="matrix(1,0,0,-1,100.6587,154.1284)" d="M0 0C-.143-.067-.277-.239-.277-.559L-.272-3.459C-.272-3.793-.029-4.002 .202-4.015 1.007-4.059 .774-1.223 .71-.401 .68-.022 .276 .129 0 0"/>
<path transform="matrix(1,0,0,-1,216.9112,145.79579)" d="M0 0C-.429 .012-.883-.188-.892-.789-.9-1.329-1.029-1.98-.679-2.405-.374-2.774 .197-2.647 .439-2.443 .754-2.178 1.096-.03 0 0"/>
<path transform="matrix(1,0,0,-1,212.8909,156.51529)" d="M0 0-.003 3.017 1.239 3.019 1.243 .001ZM2.191 3.814C1.098 4.104 .085 4.091-.973 3.832-.995 2.238-1.095 .86-.915-.742-.17-.993 1.661-1.305 2.077-.622 2.416 .956 2.133 2.398 2.191 3.814"/>
<path transform="matrix(1,0,0,-1,219.7016,156.5137)" d="M0 0-.017 3.004 1.224 3.011 1.241 .007ZM-.936 3.817C-1.017 2.233-1.04 .797-.911-.785 .128-1.065 1.187-1.122 2.222-.728 2.194 .96 2.342 2.346 2.145 3.847 1.067 4.077 .078 4.085-.936 3.817"/>
<path transform="matrix(1,0,0,-1,121.0711,141.4887)" d="M0 0C-.143-.788-.144-1.479-.001-2.238 .383-2.455 1.251-2.631 1.42-2.048 1.615-1.375 1.616-.556 1.358-.04 1.12 .434 .313 .297 0 0"/>
<path transform="matrix(1,0,0,-1,156.1892,141.7361)" d="M0 0C.951 .203 .718-2.057 .594-2.786 .493-2.993-.211-2.949-.389-2.797-.5-2.314-.667-.142 0 0M1.687-3.721C1.624-1.906 2.251 1.189-.015 1.062-2.044 .948-1.347-2.019-1.367-3.791-.312-3.93 .68-4.011 1.687-3.721"/>
<path transform="matrix(1,0,0,-1,220.5751,171.43939)" d="M0 0C.059 .598-.306 .837-.831 .949-10.815 3.076-13.425-2.107-19.702 .845-25.024 3.347-28.203 1.039-33.697 .74-35.232 .657-36.69 .705-38.163 1.055-38.724 1.189-39.134 .835-39.174 .404-39.353-1.491-32.169-.792-30.801-.531L-26.43 .305C-20.818 1.378-18.976-3.313-12.015-1.155-8.419-.041-4.851 .236-1.141-.633-.553-.77-.042-.432 0 0"/>
<path transform="matrix(1,0,0,-1,216.0012,176.4489)" d="M0 0C-.02 .401-.36 .721-.859 .723-4.259 .731-6.914-1.384-11.05-.06-17.65 2.053-20.375-1.662-26.227-.254-26.765-.125-27.073-.653-27.074-1.011-27.074-1.428-26.811-1.715-26.295-1.843-20.669-3.239-17.567 .31-11.644-1.511-6.964-2.95-4.523-1.05-.71-.814-.224-.783 .018-.362 0 0"/>
<path transform="matrix(1,0,0,-1,200.8385,184.5965)" d="M0 0C2.735-1.137 5.87-1.123 8.513 .41 8.855 .608 8.613 1.375 8.382 1.472 8.183 1.555 7.816 1.785 7.467 1.621 5.297 .601 2.871 .494 .617 1.43-1.837 2.45-4.386 2.327-6.714 .964-7.173 .696-7.406 .25-7.156-.205-6.291-1.78-4.508 1.874 0 0"/>
<path transform="matrix(1,0,0,-1,13.5584,242.7047)" d="M0 0H-.493L-.5-.391H15.688L17.964 5.917 17.572 5.918C16.367 2.945 14.778 .805 10.641 .805H5.041V24.096C5.066 25.456 6.176 26.551 7.542 26.551H8.036L8.042 26.941H-.501L-.494 26.551H0C1.366 26.551 2.476 25.456 2.501 24.096V2.455C2.476 1.096 1.367 0 0 0"/>
<path transform="matrix(1,0,0,-1,46.2791,219.902)" d="M0 0 4.706-12.532H-4.911ZM-6.15-22.806H-6.494C-7.497-22.806-8.537-21.926-7.986-20.378L-5.371-13.704H5.146L7.644-20.354C8.214-21.917 7.168-22.806 6.16-22.806H5.817V-23.192H14.609V-22.802H14.283C13.087-22.802 11.643-22.081 10.854-20.344L.415 4.687H.063C.063 3.829-1.383 .665-1.383 .665L-10.238-20.347C-11.027-22.082-12.471-22.802-13.658-22.802H-14.01V-23.192H-6.15Z"/>
<path transform="matrix(1,0,0,-1,81.9578,241.6715)" d="M0 0H-3.829V24.655H-1.766C1.937 24.659 3.929 22.629 3.943 19.099 3.929 14.077-.133 13.374-2.514 13.383L-2.505 13.016C1.273 13.023 6.311 12.047 6.308 6.194 6.311 2.246 4.007-.019 0 0M2.544 13.446C4.748 14.077 6.857 16.068 6.872 19.38 6.857 23.293 3.851 25.908-1.624 25.908L-9.377 25.91-9.371 25.522H-8.883C-7.521 25.522-6.376 24.444-6.376 23.098V1.396C-6.415 .048-7.519-1.034-8.877-1.034H-9.371L-9.377-1.425H.137C5.955-1.425 9.235 1.504 9.235 5.914 9.239 9.782 6.701 12.828 2.544 13.446"/>
<path transform="matrix(1,0,0,-1,110.0701,242.47229)" d="M0 0C-6.624 0-11.041 5.218-11.041 13.044-11.041 20.871-6.624 26.089 0 26.089 6.625 26.089 11.042 20.871 11.042 13.044 11.042 5.218 6.625 0 0 0M0 27.258C-8.304 27.258-14.034 21.572-14.034 13.045-14.034 4.517-8.304-1.169 0-1.169 8.305-1.169 14.035 4.517 14.035 13.045 14.035 21.572 8.305 27.258 0 27.258"/>
<path transform="matrix(1,0,0,-1,146.9227,216.152)" d="M0 0H.636C1.746 0 2.649-.784 2.698-1.88V-17.283C2.689-22.669-.788-26.26-6.004-26.26-10.979-26.26-14.295-22.468-14.295-16.779V-1.874C-14.248-.782-13.345 .001-12.236 .001H-11.601V.391H-19.531V.001H-18.895C-17.767 .001-16.852-.81-16.83-1.933V-17.353C-16.83-23.435-12.499-27.489-6.002-27.489 .313-27.489 4.523-23.407 4.523-17.285V-1.844C4.592-.768 5.487 .001 6.585 .001H7.222V.391H0Z"/>
<path transform="matrix(1,0,0,-1,161.576,215.72229)" d="M0 0C-1.687 .009-3.971 .402-4.702 .71V-4.198L-4.31-4.192V-3.497C-4.31-2.245-3.321-1.226-2.083-1.171H5.323V-24.591C5.265-25.922 4.169-26.983 2.824-26.983H2.33L2.323-27.374H10.872L10.865-26.983H10.372C9.016-26.983 7.913-25.904 7.871-24.56V-1.171H15.272C16.511-1.226 17.499-2.245 17.499-3.497V-4.192L17.892-4.198V.71C17.16 .402 14.877 .009 13.189 0Z"/>
<path transform="matrix(1,0,0,-1,190.6102,216.1481)" d="M0 0H.493L.5 .391H-8.042L-8.036 0H-7.542C-6.181 0-5.075-1.087-5.041-2.439V-24.101C-5.067-25.461-6.176-26.556-7.543-26.556H-8.037L-8.043-26.946H.5L.494-26.556H0C-1.366-26.556-2.476-25.461-2.501-24.101V-2.432C-2.463-1.083-1.358 0 0 0"/>
<path transform="matrix(1,0,0,-1,197.9139,229.4283)" d="M0 0C0 7.827 4.442 13.045 11.106 13.045 17.731 13.045 22.147 7.827 22.147 0 22.147-7.826 17.731-13.044 11.106-13.044 4.481-13.044 0-7.826 0 0M27.067-21.241C38.224-26.083 45.66-19.602 46.574-17.142L46.425-16.946C41.605-21.476 33.237-21.319 27.373-18.859 22.083-16.595 17.547-14.799 14.431-13.861 20.814-12.545 25.076-7.319 25.076 0 25.076 8.528 19.371 14.213 11.106 14.213 2.803 14.213-2.929 8.528-2.929 0-2.929-8.375 2.599-14.018 10.662-14.213 15.912-15.149 22.296-19.172 27.067-21.241"/>
<path transform="matrix(1,0,0,-1,248.9217,218.0318)" d="M0 0V-15.403C-.009-20.789-3.486-24.38-8.702-24.38-13.677-24.38-16.993-20.588-16.993-14.899V.006C-16.946 1.098-16.043 1.881-14.935 1.881H-14.299V2.271H-22.229V1.881H-21.593C-20.465 1.881-19.55 1.07-19.528-.053V-15.473C-19.528-21.555-15.197-25.609-8.7-25.609-2.385-25.609 1.825-21.527 1.825-15.405V.036C1.894 1.112 2.789 1.881 3.887 1.881H4.523V2.271H-2.698V1.88H-2.063C-.952 1.88-.049 1.096 0 0"/>
<path transform="matrix(1,0,0,-1,275.3006,236.7867)" d="M0 0C-1.205-2.973-2.794-5.113-6.932-5.113H-12.531V6.587H-5.892C-4.864 6.546-4.044 5.701-4.044 4.663V4.088L-3.662 4.084V10.264L-4.044 10.258V9.683C-4.044 8.632-4.887 7.779-5.933 7.76H-12.531V19.831H-4.571C-3.351 19.757-2.385 18.746-2.385 17.507V16.812L-1.99 16.806V19.941 20.593 21.736C-2.714 21.431-4.962 21.042-6.646 21.025H-18.056L-18.05 20.638H-17.556C-16.263 20.638-15.201 19.658-15.068 18.401V-3.463C-15.094-4.822-16.202-5.918-17.569-5.918H-18.063L-18.069-6.309H-1.882L.391 0Z"/>
<path transform="matrix(1,0,0,-1,86.2205,265.4869)" d="M0 0C-.402-.689-.972-1.23-1.706-1.623-2.44-2.016-3.307-2.212-4.303-2.212H-7.654V6.967H-4.303C-3.307 6.967-2.44 6.771-1.706 6.378-.972 5.985-.402 5.444 0 4.755 .402 4.065 .604 3.273 .604 2.378 .604 1.481 .402 .689 0 0M-1.299 6.981C-2.144 7.435-3.125 7.661-4.242 7.661H-8.424V-2.906H-4.242C-3.125-2.906-2.144-2.68-1.299-2.227-.453-1.774 .204-1.15 .672-.354 1.14 .439 1.374 1.351 1.374 2.378 1.374 3.404 1.14 4.314 .672 5.11 .204 5.905-.453 6.529-1.299 6.981"/>
<path transform="matrix(1,0,0,-1,99.0975,263.36579)" d="M0 0H5.631V.679H0V4.846H6.296V5.54H-.77V-5.027H6.521V-4.333H0Z"/>
<path transform="matrix(1,0,0,-1,117.2576,257.8258)" d="M0 0H-.77V-10.567H6.084V-9.873H0Z"/>
<path transform="matrix(1,0,0,-1,146.0916,257.8258)" d="M0 0H-.77V-10.567H6.084V-9.873H0Z"/>
<path transform="matrix(1,0,0,-1,162.9223,264.77009)" d="M0 0 2.764 6.096 5.539 0ZM2.387 6.944-2.474-3.623H-1.643L-.295-.649H5.834L7.188-3.623H8.018L3.157 6.944Z"/>
<path transform="matrix(1,0,0,-1,181.8846,259.7887)" d="M0 0C.433 .423 .94 .75 1.524 .981 2.108 1.213 2.742 1.329 3.427 1.329 4.07 1.329 4.667 1.233 5.216 1.042 5.764 .851 6.27 .528 6.732 .076L7.216 .589C6.753 1.072 6.194 1.435 5.54 1.676 4.886 1.918 4.177 2.038 3.412 2.038 2.606 2.038 1.869 1.905 1.2 1.639 .53 1.371-.056 .997-.559 .514-1.062 .03-1.449-.535-1.721-1.185-1.993-1.834-2.129-2.546-2.129-3.32-2.129-4.096-1.993-4.808-1.721-5.457-1.449-6.106-1.064-6.672-.566-7.155-.068-7.639 .519-8.014 1.192-8.28 1.866-8.547 2.602-8.68 3.396-8.68 4.121-8.68 4.813-8.566 5.473-8.34 6.131-8.114 6.697-7.774 7.171-7.321V-3.366H6.431V-6.968C6.048-7.278 5.643-7.532 5.2-7.684 4.642-7.875 4.051-7.971 3.427-7.971 2.742-7.971 2.108-7.855 1.524-7.623 .94-7.392 .433-7.064 0-6.642-.433-6.22-.768-5.727-1.004-5.162-1.24-4.599-1.358-3.985-1.358-3.32-1.358-2.656-1.24-2.043-1.004-1.479-.768-.916-.433-.422 0 0"/>
<path transform="matrix(1,0,0,-1,209.3367,264.9508)" d="M0 0C-.236-.564-.566-1.058-.989-1.479-1.411-1.902-1.91-2.229-2.483-2.461-3.057-2.692-3.682-2.809-4.355-2.809-5.029-2.809-5.653-2.692-6.228-2.461-6.801-2.229-7.302-1.902-7.729-1.479-8.157-1.058-8.489-.564-8.726 0-8.962 .563-9.08 1.177-9.08 1.842-9.08 2.516-8.962 3.132-8.726 3.69-8.489 4.249-8.157 4.74-7.729 5.162-7.302 5.585-6.801 5.912-6.228 6.144-5.653 6.375-5.029 6.491-4.355 6.491-3.682 6.491-3.057 6.375-2.483 6.144-1.91 5.912-1.411 5.585-.989 5.162-.566 4.74-.236 4.249 0 3.69 .236 3.132 .354 2.516 .354 1.842 .354 1.177 .236 .563 0 0M-.431 5.676C-.924 6.159-1.505 6.533-2.174 6.801-2.844 7.067-3.57 7.2-4.355 7.2-5.141 7.2-5.867 7.067-6.537 6.801-7.206 6.533-7.79 6.156-8.288 5.668-8.786 5.18-9.171 4.611-9.442 3.962-9.715 3.313-9.851 2.606-9.851 1.842-9.851 1.076-9.715 .369-9.442-.279-9.171-.929-8.786-1.497-8.288-1.985-7.79-2.474-7.206-2.852-6.537-3.118-5.867-3.385-5.141-3.518-4.355-3.518-3.57-3.518-2.844-3.385-2.174-3.118-1.505-2.852-.924-2.477-.431-1.993 .062-1.51 .447-.944 .725-.295 1.001 .354 1.14 1.066 1.14 1.842 1.14 2.616 1.001 3.328 .725 3.978 .447 4.627 .062 5.192-.431 5.676"/>
<path transform="matrix(1,0,0,-1,0,283.465)" d="M23.368 20.21H64.298007V21.21H23.368Z"/>
<path transform="matrix(1,0,0,-1,0,283.465)" d="M223.834 20.21H264.764V21.21H223.834Z"/>
</g>
</g>
</svg>
